<svg width="28" height="28" viewBox="0 0 28 28" fill="none" xmlns="http://www.w3.org/2000/svg">
    <g clip-path="url(#clip0_0_688)">
        <path
            d="M1.16675 1.16675H5.83342L8.96008 16.7884C9.06677 17.3255 9.35897 17.808 9.78555 18.1514C10.2121 18.4948 10.7459 18.6772 11.2934 18.6667H22.6334C23.1809 18.6772 23.7147 18.4948 24.1413 18.1514C24.5679 17.808 24.8601 17.3255 24.9667 16.7884L26.8334 7.00008H7.00008M11.6667 24.5001C11.6667 25.1444 11.1444 25.6667 10.5001 25.6667C9.85575 25.6667 9.33342 25.1444 9.33342 24.5001C9.33342 23.8557 9.85575 23.3334 10.5001 23.3334C11.1444 23.3334 11.6667 23.8557 11.6667 24.5001ZM24.5001 24.5001C24.5001 25.1444 23.9777 25.6667 23.3334 25.6667C22.6891 25.6667 22.1667 25.1444 22.1667 24.5001C22.1667 23.8557 22.6891 23.3334 23.3334 23.3334C23.9777 23.3334 24.5001 23.8557 24.5001 24.5001Z"
            stroke="black" stroke-width="4" stroke-linecap="round" stroke-linejoin="round" />
    </g>
    <defs>
        <clipPath id="clip0_0_688">
            <rect width="28" height="28" fill="white" />
        </clipPath>
    </defs>
</svg>